<svg width="232px" height="232px" viewBox="0 0 17.00 17.00" version="1.1" xmlns="http://www.w3.org/2000/svg" xmlns:xlink="http://www.w3.org/1999/xlink" class="si-glyph si-glyph-bubble-message" fill="#dcdce5" stroke="#dcdce5" transform="matrix(1, 0, 0, 1, 0, 0)rotate(0)"><g id="SVGRepo_bgCarrier" stroke-width="0"></g><g id="SVGRepo_tracerCarrier" stroke-linecap="round" stroke-linejoin="round" stroke="#712828" stroke-width="3.4"> <title>1082</title> <defs> </defs> <g stroke-width="0.272" fill="none" fill-rule="evenodd"> <path d="M8.988,1.002 C4.601,1.002 1.041,3.621 1.041,6.854 C1.041,9.804 4.009,12.237 7.865,12.64 L5.823,15.972 L11.926,12.286 C14.86,11.426 16.938,9.319 16.938,6.853 C16.938,3.621 13.379,1.002 8.988,1.002 L8.988,1.002 Z" fill="#434343" class="si-glyph-fill"> </path> </g> </g><g id="SVGRepo_iconCarrier"> <title>1082</title> <defs> </defs> <g stroke-width="0.272" fill="none" fill-rule="evenodd"> <path d="M8.988,1.002 C4.601,1.002 1.041,3.621 1.041,6.854 C1.041,9.804 4.009,12.237 7.865,12.64 L5.823,15.972 L11.926,12.286 C14.86,11.426 16.938,9.319 16.938,6.853 C16.938,3.621 13.379,1.002 8.988,1.002 L8.988,1.002 Z" fill="#434343" class="si-glyph-fill"> </path> </g> </g></svg>